<svg height="512pt" viewBox="0 0 512 512" width="512pt" xmlns="http://www.w3.org/2000/svg"><path d="m168.363281 364.710938v36.199218h30v-87.664062h-87.664062v30h36.707031l-84.691406 84.371094 21.175781 21.253906zm0 0"/><path d="m343.636719 364.710938 84.472656 84.160156 21.175781-21.253906-84.691406-84.371094h36.707031v-30h-87.664062v87.664062h30zm0 0"/><path d="m110.699219 168.753906v30h87.664062v-87.664062h-30v36.199218l-84.472656-84.160156-21.175781 21.253906 84.691406 84.371094zm0 0"/><path d="m401.300781 168.753906h-36.707031l84.691406-84.371094-21.175781-21.253906-84.472656 84.160156v-36.199218h-30v87.664062h87.664062zm0 0"/><path d="m0 0v512h512v-512zm482 482h-452v-452h452zm0 0"/></svg>