<?xml version="1.0"?>
<svg xmlns="http://www.w3.org/2000/svg" xmlns:xlink="http://www.w3.org/1999/xlink" xmlns:svgjs="http://svgjs.com/svgjs" version="1.1" width="512" height="512" x="0" y="0" viewBox="0 0 512 512.001" style="enable-background:new 0 0 512 512" xml:space="preserve" class=""><g><path xmlns="http://www.w3.org/2000/svg" d="m502 349.996094h-10v-319.996094c0-16.542969-13.460938-30-30-30h-412c-16.542969 0-30 13.457031-30 30v319.996094h-10c-5.523438 0-10 4.480468-10 10v30c0 16.542968 13.457031 30 30 30h242.648438v62.003906c0 16.542969 13.457031 30 30 30h119.347656c16.542968 0 30-13.457031 30-30v-62.003906h30.003906c16.542969 0 30-13.457032 30-30v-30c0-5.519532-4.476562-10-10-10zm-50.003906 0v-20h20.003906v20zm-401.996094-329.996094h412c5.511719 0 10 4.484375 10 10v10h-432v-10c0-5.515625 4.484375-10 10-10zm-10 309.996094h10c5.523438 0 10-4.476563 10-10 0-5.523438-4.476562-10-10-10h-10v-249.996094h432v249.996094h-20.003906v-67.996094c0-16.542969-13.457032-30-30-30h-119.347656c-4.625 0-9.011719 1.054688-12.925782 2.933594l-42.933594-42.933594h15.855469c5.523438 0 10-4.476562 10-10s-4.476562-10-10-10h-39.996093c-5.523438 0-10 4.476562-10 10v40c0 5.519531 4.476562 10 10 10 5.519531 0 10-4.480469 10-10v-15.859375l42.933593 42.933594c-1.878906 3.917969-2.933593 8.300781-2.933593 12.925781v67.996094h-132.648438c-5.523438 0-10 4.476562-10 10 0 5.523437 4.476562 10 10 10h132.648438v30h-66.648438c0-5.519532-4.476562-10-10-10h-156zm-10 70c-5.515625 0-10-4.484375-10-10v-20h168.683594c3.464844 5.976562 9.929687 10 17.316406 10h66.648438v20zm401.996094 82.003906c0 5.515625-4.484375 10-10 10h-119.347656c-5.515626 0-10-4.484375-10-10v-235.859375l45.859374 45.859375h-15.859374c-5.519532 0-10 4.476562-10 10s4.480468 10 10 10h40c5.523437 0 10-4.476562 10-10v-39.996094c0-5.523437-4.476563-10-10-10-5.523438 0-10 4.476563-10 10v15.855469l-45.859376-45.859375h115.207032c5.515625 0 10 4.488281 10 10zm60.003906-92.003906c0 5.515625-4.488281 10-10 10h-30.003906v-30h40.003906zm0 0" fill="#005bea" data-original="#000000" style="" class=""/><path xmlns="http://www.w3.org/2000/svg" d="m362.328125 462h-.007813c-5.523437 0-9.996093 4.476562-9.996093 10 0 5.519531 4.480469 10 10.003906 10s10-4.480469 10-10c0-5.523438-4.476563-10-10-10zm0 0" fill="#005bea" data-original="#000000" style="" class=""/><path xmlns="http://www.w3.org/2000/svg" d="m387 100.003906h54.996094c5.523437 0 10-4.476562 10-10 0-5.523437-4.476563-10-10-10h-54.992188c-5.523437 0-10 4.476563-10 10-.003906 5.523438 4.472656 10 9.996094 10zm0 0" fill="#005bea" data-original="#000000" style="" class=""/><path xmlns="http://www.w3.org/2000/svg" d="m342.003906 100.003906c5.523438 0 10-4.476562 10-10 0-5.523437-4.476562-10-10-10h-.003906c-5.523438 0-10 4.476563-10 10 0 5.523438 4.480469 10 10.003906 10zm0 0" fill="#005bea" data-original="#000000" style="" class=""/><path xmlns="http://www.w3.org/2000/svg" d="m95.003906 309.996094h-.007812c-5.523438 0-9.996094 4.476562-9.996094 10 0 5.523437 4.480469 10 10.003906 10 5.523438 0 10-4.476563 10-10 0-5.523438-4.476562-10-10-10zm0 0" fill="#005bea" data-original="#000000" style="" class=""/></g></svg>
